<?xml version="1.0" encoding="utf-8"?><svg xmlns="http://www.w3.org/2000/svg" xmlns:xlink="http://www.w3.org/1999/xlink"><symbol viewBox="0 0 61 51" id="bubble" xmlns="http://www.w3.org/2000/svg"><path d="M13.3519 50.9999C12.375 51.003 11.4011 50.8939 10.451 50.6749C3.70494 49.05 -1.11009 41.8189 0.222265 35.1484C1.55462 28.478 8.53683 23.4893 15.5106 24.0418L18.7825 24.2937C19.1116 24.3192 19.4222 24.4511 19.664 24.6678C19.9058 24.8845 20.0646 25.1735 20.1148 25.488C21.5588 26.3436 22.8115 27.4678 23.7998 28.7948C26.4561 32.2966 27.6198 37.269 26.6754 41.1608C26.2483 42.7818 25.4937 44.3058 24.4548 45.6455C23.4159 46.9853 22.1131 48.1145 20.6208 48.9687C18.4385 50.2784 15.9229 50.9813 13.3519 50.9999ZM14.4734 26.8367C9.19459 26.8367 4.10131 30.7285 3.10626 35.6847C2.05218 40.9496 5.81315 46.6694 11.1426 47.9206C12.4956 48.2088 13.8942 48.2372 15.2586 48.0044C16.623 47.7716 17.9264 47.2821 19.0945 46.5638C21.44 45.232 23.1413 43.058 23.8252 40.5189C24.1545 38.774 24.1128 36.9828 23.7026 35.2539C23.2924 33.5249 22.5222 31.8942 21.4388 30.4604C20.7444 29.4675 19.8341 28.632 18.7711 28.0119C17.7082 27.3918 16.5179 27.0019 15.2829 26.8693C15.0131 26.8449 14.7854 26.8367 14.4734 26.8367Z"/><path d="M52.4068 18C51.7917 18.002 51.1785 17.9293 50.5803 17.7833C46.3327 16.7 43.3011 11.8793 44.1399 7.43229C44.9788 2.98531 49.375 -0.340454 53.7659 0.0278707L55.826 0.195782C56.0333 0.212825 56.2288 0.30071 56.3811 0.445203C56.5333 0.589697 56.6333 0.78235 56.6649 0.992015C57.5741 1.56242 58.3628 2.31185 58.9851 3.19655C60.6575 5.53108 61.3903 8.84601 60.7956 11.4405C60.5267 12.5212 60.0516 13.5372 59.3975 14.4303C58.7434 15.3235 57.9231 16.0764 56.9835 16.6458C55.6094 17.5189 54.0255 17.9875 52.4068 18ZM53.1129 1.89116C49.7892 1.89116 46.5823 4.4857 45.9558 7.78979C45.2921 11.2997 47.6601 15.113 51.0157 15.9471C51.8676 16.1392 52.7482 16.1581 53.6073 16.0029C54.4664 15.8477 55.287 15.5214 56.0224 15.0425C57.4992 14.1546 58.5705 12.7053 59.001 11.0126C59.2084 9.84933 59.1821 8.65521 58.9238 7.50258C58.6656 6.34995 58.1807 5.26278 57.4985 4.30694C57.0613 3.645 56.4881 3.08803 55.8189 2.67462C55.1496 2.26121 54.4002 2.00127 53.6226 1.91283C53.4527 1.89658 53.3093 1.89116 53.1129 1.89116Z"/></symbol><symbol viewBox="0 0 7 7" id="circle-fill" xmlns="http://www.w3.org/2000/svg"><circle cx="3.5" cy="3.5" r="3.5"/></symbol><symbol viewBox="0 0 98 109" id="conf" xmlns="http://www.w3.org/2000/svg"><path d="M2.88936 108.318C2.34871 108.23 1.85467 107.959 1.49064 107.55C1.12662 107.141 0.914927 106.619 0.89103 106.072C0.491889 95.4146 5.66454 84.1973 14.7698 76.0575C18.1239 73.0085 21.9571 70.5324 26.1155 68.7285C24.6879 59.8923 26.7034 50.845 31.7471 43.4505C36.0107 37.6314 42.0013 33.3056 48.8661 31.0886C49.3056 24.23 52.1156 17.7374 56.815 12.7225C65.3473 3.94053 79.3849 -0.219013 95.3381 1.16084C95.9646 1.21846 96.5426 1.52265 96.9449 2.00644C97.3472 2.49022 97.5408 3.11396 97.4832 3.74051C97.4255 4.36705 97.1214 4.94503 96.6376 5.34732C96.1538 5.74961 95.53 5.94324 94.9035 5.88561C80.4002 4.57102 67.7458 8.26178 60.2303 16.0207C56.6592 19.8124 54.3902 24.6438 53.7527 29.8131C60.1618 28.5169 66.8087 29.0957 72.8974 31.4801C75.5107 32.4154 77.8226 34.0397 79.5887 36.181C80.4977 37.4465 81.1189 38.8957 81.4085 40.4267C81.698 41.9577 81.649 43.5334 81.265 45.0435C80.8707 46.8295 80.1004 48.511 79.0052 49.9759C77.91 51.4407 76.515 52.6553 74.9135 53.5387C69.6087 56.318 62.4309 55.3695 57.0518 51.1666C54.7541 49.3121 52.8548 47.0125 51.4679 44.4058C50.0809 41.799 49.235 38.939 48.9809 35.9972C43.643 38.006 39.0081 41.5301 35.6454 46.1367C31.4454 52.2962 29.6743 59.7925 30.6734 67.1804C32.0418 66.8156 33.4334 66.5444 34.8387 66.3688C38.7074 65.8188 42.6509 66.1679 46.3629 67.3889C50.0748 68.6099 53.4554 70.6701 56.2421 73.4094C59.3215 76.6542 60.814 80.3492 60.4063 83.866C59.712 90.0511 53.297 93.9212 47.683 93.6208C42.9551 93.3786 38.1019 90.7196 34.0508 86.1355C30.8558 82.4668 28.5103 78.1378 27.1817 73.4578C23.8113 75.0279 20.6961 77.0959 17.9408 79.5924C9.90666 86.8005 5.28505 96.6315 5.64472 105.891C5.64892 106.505 5.41521 107.098 4.99247 107.544C4.56972 107.991 3.99073 108.256 3.37668 108.285C3.21554 108.311 3.05246 108.322 2.88936 108.318ZM31.5735 71.8282C32.7051 75.9529 34.7483 79.7709 37.5525 83.0005C39.411 85.0869 43.2109 88.6529 47.885 88.8865C51.2457 89.0628 55.2662 86.8231 55.6563 83.331C55.677 82.0821 55.4305 80.8432 54.9332 79.6973C54.436 78.5514 53.6993 77.5251 52.7728 76.6872C50.4856 74.4924 47.7297 72.846 44.713 71.8723C41.6964 70.8986 38.4978 70.623 35.359 71.0664C34.0798 71.2247 32.8144 71.4793 31.5735 71.8282ZM53.5735 34.5786C53.6641 37.0479 54.2762 39.4699 55.3697 41.6857C56.4633 43.9015 58.0135 45.8607 59.9183 47.4346C63.8035 50.4632 69.0386 51.2406 72.6612 49.3371C73.6561 48.7709 74.5207 48.0016 75.1989 47.0795C75.8772 46.1574 76.3539 45.1029 76.5981 43.9846C76.8286 43.1444 76.872 42.2639 76.7253 41.4052C76.5787 40.5465 76.2456 39.7304 75.7493 39.0143C74.5021 37.5545 72.88 36.463 71.0579 35.8575C65.496 33.6604 59.3959 33.2142 53.5735 34.5786Z"/></symbol><symbol viewBox="0 0 53 65" id="curv" xmlns="http://www.w3.org/2000/svg"><path d="M44.1113 64.1773C41.5113 64.1773 38.9313 63.0673 36.6113 61.9573C34.2384 60.9506 32.0251 59.603 30.0413 57.9573C25.3013 53.6973 24.0413 47.2073 23.4213 40.8173C23.3213 39.8173 23.2213 38.6973 23.1413 37.5973C15.621 37.6951 8.41711 40.6395 2.98129 45.8373C2.81899 46.0025 2.62534 46.1337 2.41171 46.2231C2.19807 46.3125 1.96874 46.3583 1.73714 46.3579C1.50555 46.3576 1.27636 46.311 1.06301 46.2209C0.849666 46.1308 0.656465 45.999 0.494713 45.8332C0.332962 45.6675 0.20593 45.4711 0.121056 45.2556C0.0361816 45.0401 -0.0048186 44.8099 0.000450468 44.5784C0.00571954 44.3468 0.0571677 44.1187 0.151757 43.9073C0.246346 43.6959 0.382169 43.5055 0.551293 43.3473C6.58808 37.5702 14.5771 34.2754 22.9313 34.1173C22.6273 29.1383 22.9634 24.1408 23.9313 19.2473C25.6613 11.2973 29.5913 4.58729 35.0213 0.367288C35.386 0.0835061 35.8484 -0.0437927 36.307 0.0134059C36.7655 0.0706045 37.1825 0.307608 37.4663 0.67228C37.7501 1.03695 37.8773 1.49943 37.8202 1.95796C37.763 2.41648 37.526 2.83351 37.1613 3.11729C32.3713 6.83729 28.8913 12.8273 27.3413 19.9873C26.3942 24.6843 26.0581 29.4841 26.3413 34.2673C34.5978 35.1338 42.2313 39.0576 47.7413 45.2673C50.4313 48.3273 51.8813 51.2673 52.1813 54.2673C52.5813 58.2673 50.4813 62.1973 47.1813 63.5873C46.2059 63.9812 45.1632 64.1816 44.1113 64.1773ZM26.6413 37.8073C26.7213 38.7173 26.8013 39.6073 26.8913 40.4873C27.4513 46.1673 28.5013 51.9073 32.3713 55.3773C34.1114 56.791 36.0442 57.9493 38.1113 58.8173C40.8213 60.1173 43.6513 61.2973 45.9213 60.3373C48.1913 59.3773 49.0113 56.6873 48.8013 54.5673C48.5913 52.4473 47.4013 50.0373 45.2113 47.5673C40.4129 42.1655 33.8116 38.696 26.6413 37.8073Z"/></symbol><symbol viewBox="0 0 414 30" id="logo" xmlns="http://www.w3.org/2000/svg"><path d="M2.61526 29.8755C1.82523 29.8755 1.18504 29.6404 0.694678 29.1701C0.231559 28.6722 0 28.0083 0 27.1784V2.90456C0 2.10235 0.217938 1.47995 0.653815 1.03735C1.11693 0.594745 1.74351 0.373444 2.53353 0.373444H12.5859C15.6643 0.373444 18.0616 1.16183 19.7779 2.73859C21.4942 4.28769 22.3523 6.47303 22.3523 9.29461C22.3523 12.1162 21.4942 14.3154 19.7779 15.8921C18.0616 17.4689 15.6643 18.2573 12.5859 18.2573H5.27138V27.1784C5.27138 28.0083 5.0262 28.6722 4.53584 29.1701C4.07272 29.6404 3.43253 29.8755 2.61526 29.8755ZM11.9321 14.1494C15.5554 14.1494 17.367 12.545 17.367 9.3361C17.367 6.12725 15.5554 4.52282 11.9321 4.52282H5.27138V14.1494H11.9321Z"/><path d="M62.2743 26.4315C62.4377 26.7911 62.5195 27.1508 62.5195 27.5104C62.5195 28.1466 62.2607 28.686 61.7431 29.1286C61.2527 29.5712 60.6806 29.7925 60.0268 29.7925C59.5909 29.7925 59.1823 29.6819 58.8009 29.4606C58.4195 29.2116 58.1198 28.8382 57.9019 28.3403L55.4501 22.7801H41.0662L38.6144 28.3403C38.3964 28.8382 38.0968 29.2116 37.7154 29.4606C37.334 29.6819 36.9117 29.7925 36.4486 29.7925C35.822 29.7925 35.2499 29.5712 34.7323 29.1286C34.2147 28.686 33.9559 28.1466 33.9559 27.5104C33.9559 27.1508 34.0377 26.7911 34.2011 26.4315L45.4794 1.82573C45.7246 1.27248 46.0924 0.857538 46.5827 0.580913C47.1003 0.276626 47.6452 0.124482 48.2173 0.124482C48.7894 0.124482 49.3206 0.276626 49.8109 0.580913C50.3285 0.857538 50.7099 1.27248 50.9551 1.82573L62.2743 26.4315ZM42.8642 18.6307H53.6521L48.2581 6.30705L42.8642 18.6307Z"/><path d="M112.12 1.78423C112.31 1.23098 112.61 0.816044 113.019 0.53942C113.455 0.262795 113.931 0.124482 114.449 0.124482C115.103 0.124482 115.661 0.331951 116.124 0.746888C116.615 1.16183 116.86 1.71508 116.86 2.40664C116.86 2.6556 116.792 3.01522 116.656 3.48548L107.87 28.1743C107.652 28.7275 107.284 29.1563 106.767 29.4606C106.276 29.7649 105.731 29.917 105.132 29.917C104.533 29.917 103.974 29.7649 103.457 29.4606C102.939 29.1563 102.585 28.7275 102.394 28.1743L95.6109 8.6307L88.705 28.1743C88.487 28.7275 88.1193 29.1563 87.6016 29.4606C87.1113 29.7649 86.5664 29.917 85.9671 29.917C85.3678 29.917 84.8093 29.7649 84.2917 29.4606C83.8013 29.1563 83.4608 28.7275 83.2701 28.1743L74.4845 3.48548C74.3483 3.07054 74.2802 2.71093 74.2802 2.40664C74.2802 1.71508 74.5253 1.16183 75.0157 0.746888C75.5333 0.331951 76.1326 0.124482 76.8137 0.124482C77.3585 0.124482 77.8489 0.262795 78.2848 0.53942C78.7207 0.816044 79.0339 1.23098 79.2246 1.78423L86.1714 22.0747L93.3225 1.90871C93.5132 1.35546 93.8265 0.926695 94.2624 0.622406C94.6983 0.290457 95.175 0.124482 95.6926 0.124482C96.2102 0.124482 96.687 0.290457 97.1228 0.622406C97.5859 0.926695 97.9128 1.3693 98.1035 1.95021L105.05 22.3237L112.12 1.78423Z"/><path d="M136.244 29.8755C135.453 29.8755 134.813 29.6266 134.323 29.1286C133.86 28.6307 133.628 27.9806 133.628 27.1784V2.90456C133.628 2.10235 133.846 1.47995 134.282 1.03735C134.745 0.594745 135.372 0.373444 136.162 0.373444H150.505C152.167 0.373444 152.998 1.09267 152.998 2.53112C152.998 3.94191 152.167 4.6473 150.505 4.6473H138.818V12.6141H149.688C151.349 12.6141 152.18 13.3333 152.18 14.7718C152.18 16.1826 151.349 16.888 149.688 16.888H138.818V27.1784C138.818 27.9806 138.586 28.6307 138.123 29.1286C137.66 29.6266 137.034 29.8755 136.244 29.8755Z"/><path d="M171.566 29.6266C170.776 29.6266 170.15 29.4053 169.686 28.9627C169.251 28.5201 169.033 27.8977 169.033 27.0954V2.90456C169.033 2.10235 169.251 1.47995 169.686 1.03735C170.15 0.594745 170.776 0.373444 171.566 0.373444H186.318C187.108 0.373444 187.721 0.553251 188.157 0.912864C188.593 1.27248 188.81 1.78423 188.81 2.44813C188.81 3.1397 188.593 3.67911 188.157 4.06639C187.721 4.426 187.108 4.60581 186.318 4.60581H174.181V12.6556H185.501C186.291 12.6556 186.904 12.8354 187.339 13.195C187.775 13.5546 187.993 14.0802 187.993 14.7718C187.993 15.4357 187.775 15.9474 187.339 16.3071C186.904 16.6667 186.291 16.8465 185.501 16.8465H174.181V25.3942H186.318C187.108 25.3942 187.721 25.5878 188.157 25.9751C188.593 26.3347 188.81 26.8603 188.81 27.5519C188.81 28.2158 188.593 28.7275 188.157 29.0871C187.721 29.4468 187.108 29.6266 186.318 29.6266H171.566Z"/><path d="M218.147 30C215.368 30 212.93 29.3914 210.832 28.1743C208.762 26.9571 207.168 25.2144 206.051 22.9461C204.934 20.6777 204.376 18.0221 204.376 14.9793C204.376 11.9364 204.934 9.29461 206.051 7.05394C207.168 4.78562 208.762 3.04288 210.832 1.82573C212.93 0.608576 215.368 0 218.147 0C219.945 0 221.634 0.276626 223.214 0.829877C224.794 1.35546 226.197 2.13002 227.423 3.15353C227.777 3.43015 228.022 3.72061 228.158 4.0249C228.295 4.32919 228.363 4.70263 228.363 5.14523C228.363 5.7538 228.199 6.26556 227.872 6.6805C227.546 7.09544 227.15 7.3029 226.687 7.3029C226.143 7.3029 225.584 7.10927 225.012 6.72199C223.841 5.83679 222.751 5.22822 221.743 4.89627C220.735 4.53665 219.618 4.35685 218.392 4.35685C215.559 4.35685 213.407 5.25588 211.936 7.05394C210.492 8.85201 209.77 11.4938 209.77 14.9793C209.77 18.4924 210.492 21.148 211.936 22.9461C213.407 24.7441 215.559 25.6432 218.392 25.6432C219.564 25.6432 220.64 25.4633 221.62 25.1037C222.628 24.7441 223.759 24.1355 225.012 23.278C225.284 23.112 225.557 22.9737 225.829 22.8631C226.102 22.7524 226.388 22.6971 226.687 22.6971C227.15 22.6971 227.546 22.9046 227.872 23.3195C228.199 23.7344 228.363 24.2462 228.363 24.8548C228.363 25.2697 228.295 25.6432 228.158 25.9751C228.022 26.2794 227.777 26.5698 227.423 26.8465C226.197 27.87 224.794 28.6584 223.214 29.2116C221.634 29.7372 219.945 30 218.147 30Z"/><path d="M254.269 29.834C253.452 29.834 252.798 29.5989 252.307 29.1286C251.844 28.6307 251.613 27.9806 251.613 27.1784V4.77178H244.176C242.541 4.77178 241.724 4.03873 241.724 2.57262C241.724 1.1065 242.541 0.373444 244.176 0.373444H264.321C265.956 0.373444 266.773 1.1065 266.773 2.57262C266.773 4.03873 265.956 4.77178 264.321 4.77178H256.884V27.1784C256.884 27.9806 256.639 28.6307 256.149 29.1286C255.686 29.5989 255.059 29.834 254.269 29.834Z"/><path d="M284.765 29.8755C283.975 29.8755 283.334 29.6266 282.844 29.1286C282.381 28.6307 282.149 27.9806 282.149 27.1784V2.82158C282.149 2.01937 282.381 1.38313 282.844 0.912864C283.334 0.414938 283.975 0.165975 284.765 0.165975C285.582 0.165975 286.222 0.414938 286.685 0.912864C287.176 1.38313 287.421 2.01937 287.421 2.82158V27.1784C287.421 27.9806 287.176 28.6307 286.685 29.1286C286.222 29.6266 285.582 29.8755 284.765 29.8755Z"/><path d="M318.732 30C315.926 30 313.488 29.3914 311.418 28.1743C309.375 26.9571 307.794 25.2144 306.678 22.9461C305.561 20.6777 305.002 18.0221 305.002 14.9793C305.002 11.9364 305.547 9.29461 306.637 7.05394C307.754 4.78562 309.347 3.04288 311.418 1.82573C313.488 0.608576 315.926 0 318.732 0C321.538 0 323.963 0.608576 326.006 1.82573C328.076 3.04288 329.656 4.78562 330.746 7.05394C331.863 9.29461 332.422 11.9364 332.422 14.9793C332.422 18.0221 331.863 20.6777 330.746 22.9461C329.629 25.2144 328.036 26.9571 325.965 28.1743C323.922 29.3914 321.511 30 318.732 30ZM318.732 25.7261C321.375 25.7261 323.432 24.7994 324.903 22.9461C326.401 21.0927 327.15 18.4371 327.15 14.9793C327.15 11.5214 326.401 8.87967 324.903 7.05394C323.432 5.20055 321.375 4.27386 318.732 4.27386C316.063 4.27386 313.979 5.20055 312.48 7.05394C311.009 8.87967 310.274 11.5214 310.274 14.9793C310.274 18.4371 311.009 21.0927 312.48 22.9461C313.979 24.7994 316.063 25.7261 318.732 25.7261Z"/><path d="M371.826 0.165975C372.589 0.165975 373.188 0.414938 373.624 0.912864C374.087 1.38313 374.319 2.01937 374.319 2.82158V27.1784C374.319 27.9806 374.087 28.6307 373.624 29.1286C373.161 29.6266 372.562 29.8755 371.826 29.8755C370.954 29.8755 370.287 29.5574 369.824 28.9212L354.909 9.21162V27.1784C354.909 27.9806 354.691 28.6307 354.255 29.1286C353.819 29.6266 353.22 29.8755 352.457 29.8755C351.694 29.8755 351.095 29.6266 350.659 29.1286C350.223 28.6307 350.005 27.9806 350.005 27.1784V2.82158C350.005 2.01937 350.237 1.38313 350.7 0.912864C351.163 0.414938 351.776 0.165975 352.538 0.165975C353.383 0.165975 354.037 0.484094 354.5 1.12033L369.374 20.7469V2.82158C369.374 2.01937 369.592 1.38313 370.028 0.912864C370.491 0.414938 371.09 0.165975 371.826 0.165975Z"/><path d="M402.763 30C400.665 30 398.676 29.7234 396.796 29.1701C394.944 28.5892 393.432 27.8147 392.261 26.8465C391.634 26.3762 391.321 25.7123 391.321 24.8548C391.321 24.2739 391.484 23.7759 391.811 23.361C392.165 22.9184 392.574 22.6971 393.037 22.6971C393.527 22.6971 394.086 22.8907 394.712 23.278C395.884 24.1355 397.11 24.758 398.39 25.1452C399.671 25.5325 401.087 25.7261 402.64 25.7261C404.629 25.7261 406.154 25.3804 407.217 24.6888C408.279 23.9696 408.81 22.9322 408.81 21.5768C408.81 20.5256 408.306 19.7234 407.298 19.1701C406.318 18.5892 404.67 18.036 402.354 17.5104C399.957 16.9848 398.009 16.3762 396.51 15.6846C395.012 14.9931 393.882 14.1079 393.119 13.029C392.356 11.9502 391.975 10.5809 391.975 8.92116C391.975 7.20609 392.451 5.67082 393.405 4.31535C394.358 2.95989 395.68 1.90871 397.369 1.16183C399.085 0.387275 401.005 0 403.13 0C407.026 0 410.2 1.05118 412.651 3.15353C413.006 3.45782 413.251 3.7621 413.387 4.06639C413.55 4.34302 413.632 4.70263 413.632 5.14523C413.632 5.72614 413.455 6.2379 413.101 6.6805C412.774 7.09544 412.379 7.3029 411.916 7.3029C411.643 7.3029 411.385 7.26141 411.14 7.17842C410.922 7.09544 410.622 6.94329 410.241 6.72199C409.124 5.89212 408.034 5.28354 406.971 4.89627C405.936 4.48133 404.656 4.27386 403.13 4.27386C401.278 4.27386 399.807 4.66114 398.717 5.43569C397.655 6.18257 397.123 7.23375 397.123 8.58921C397.123 9.72338 397.6 10.5947 398.554 11.2033C399.507 11.8119 401.128 12.379 403.416 12.9046C405.841 13.4578 407.802 14.0802 409.301 14.7718C410.826 15.4357 411.984 16.2932 412.774 17.3444C413.591 18.3956 414 19.7095 414 21.2863C414 23.0014 413.523 24.5228 412.57 25.8506C411.644 27.1508 410.322 28.1743 408.606 28.9212C406.917 29.6404 404.969 30 402.763 30Z"/></symbol><symbol viewBox="0 0 62 71" id="star" xmlns="http://www.w3.org/2000/svg"><path d="M25.8453 35.8712L1.7698 35.2437C1.53107 35.2383 1.29576 35.1858 1.07743 35.0891C0.859101 34.9925 0.662057 34.8537 0.497637 34.6807C0.333218 34.5077 0.204621 34.3038 0.119349 34.081C0.0340774 33.8581 -0.00619234 33.6206 0.000770778 33.3822C-0.0010001 33.141 0.046589 32.9021 0.140688 32.6801C0.234787 32.458 0.373387 32.2576 0.547918 32.0911C0.72245 31.9245 0.929238 31.7954 1.15557 31.7117C1.3819 31.628 1.62297 31.5914 1.86397 31.6043L25.9395 32.2318C26.4225 32.2318 26.8859 32.4235 27.2274 32.7648C27.569 33.1061 27.7608 33.5689 27.7608 34.0515C27.7608 34.5341 27.569 34.9969 27.2274 35.3382C26.8859 35.6795 26.4225 35.8712 25.9395 35.8712H25.8453Z"/><path d="M60.0635 36.0907L43.3153 35.5992C43.0766 35.5924 42.8415 35.5386 42.6237 35.4407C42.4058 35.3428 42.2096 35.2028 42.0461 35.0288C41.8827 34.8548 41.7553 34.6502 41.6713 34.4268C41.5873 34.2035 41.5483 33.9657 41.5567 33.7272C41.581 33.2482 41.7894 32.797 42.1385 32.4677C42.4876 32.1384 42.9504 31.9565 43.4305 31.9598L60.1786 32.4513C60.6617 32.4513 61.125 32.643 61.4665 32.9843C61.8081 33.3255 62 33.7884 62 34.271C62 34.7537 61.8081 35.2165 61.4665 35.5577C61.125 35.899 60.6617 36.0907 60.1786 36.0907H60.0635Z"/><path d="M34.7737 25.3295C34.2933 25.3268 33.8331 25.1356 33.4925 24.7972C33.1518 24.4588 32.9578 24.0002 32.9523 23.5203L32.7849 1.8302C32.7849 1.34841 32.9749 0.886052 33.314 0.543425C33.653 0.200797 34.1136 0.00553639 34.5958 3.02438e-05C34.8345 -0.00134823 35.071 0.044408 35.292 0.134714C35.5129 0.22502 35.7137 0.358112 35.883 0.526254C36.0523 0.694396 36.1866 0.894265 36.2783 1.11446C36.3699 1.33465 36.4171 1.57078 36.4171 1.80926L36.5846 23.5412C36.5873 23.7802 36.543 24.0174 36.454 24.2392C36.365 24.461 36.2332 24.6632 36.066 24.8341C35.8988 25.005 35.6995 25.1414 35.4796 25.2353C35.2597 25.3293 35.0234 25.3791 34.7842 25.3818L34.7737 25.3295Z"/><path d="M34.9102 71C34.4326 71.0001 33.974 70.8126 33.6333 70.4781C33.2927 70.1436 33.0971 69.6889 33.0889 69.2117L32.7329 44.1122C32.726 43.6296 32.9113 43.164 33.248 42.8179C33.5846 42.4717 34.0451 42.2733 34.5282 42.2663C35.0112 42.2594 35.4772 42.4445 35.8237 42.7809C36.1702 43.1173 36.3688 43.5773 36.3757 44.0599L36.7316 69.1594C36.7343 69.3983 36.69 69.6355 36.601 69.8573C36.512 70.0791 36.3802 70.2813 36.213 70.4522C36.0458 70.6231 35.8465 70.7595 35.6266 70.8534C35.4067 70.9474 35.1704 70.9973 34.9312 71H34.9102Z"/></symbol><symbol viewBox="0 0 45 75" id="star-big" xmlns="http://www.w3.org/2000/svg"><path d="M21.7765 75H21.4847C20.9583 74.9274 20.4784 74.6591 20.1405 74.2483C19.8025 73.8376 19.6313 73.3145 19.6606 72.783C20.3538 61.3205 13.0456 49.2976 1.04356 42.1229C0.725809 41.9358 0.462364 41.6687 0.279324 41.3482C0.0962846 41.0278 0 40.6649 0 40.2957C0 39.9265 0.0962846 39.5636 0.279324 39.2431C0.462364 38.9227 0.725809 38.6556 1.04356 38.4685C13.5076 31.4156 21.813 16.8225 21.7157 2.14407C21.7091 1.58813 21.9208 1.05185 22.3052 0.650822C22.6896 0.249789 23.216 0.0161366 23.7708 0.00019947C24.3214 -0.00729927 24.8539 0.196877 25.2588 0.570749C25.6637 0.94462 25.9101 1.45974 25.9474 2.01009C26.3487 9.62336 26.7621 17.4803 29.4009 24.5941C32.1977 32.183 37.463 37.762 43.4701 39.5283C43.9266 39.66 44.3255 39.9419 44.6026 40.3284C44.8797 40.7148 45.019 41.1835 44.9979 41.6589C44.9769 42.1343 44.7967 42.5887 44.4865 42.9491C44.1762 43.3095 43.754 43.5548 43.2877 43.6455C38.0588 44.6809 33.1462 48.7495 29.8143 54.7913C26.7013 60.4556 25.2178 67.0335 23.7343 73.3799C23.6269 73.8258 23.378 74.2248 23.025 74.5169C22.672 74.809 22.2339 74.9785 21.7765 75ZM6.07785 40.3079C13.7186 45.4699 19.4628 52.9952 22.4331 61.7347C23.3679 58.6066 24.6188 55.5822 26.1663 52.7084C28.6849 47.8943 32.5576 43.926 37.3049 41.2946C31.7887 37.6561 27.632 32.2884 25.4853 26.0315C24.5018 23.3289 23.7571 20.5449 23.26 17.7117C20.02 26.8516 14.0134 34.7509 6.07785 40.3079Z"/></symbol><symbol viewBox="0 0 39 65" id="star-small" xmlns="http://www.w3.org/2000/svg"><path d="M18.873 65H18.62C18.1638 64.9371 17.748 64.7045 17.4551 64.3486C17.1622 63.9926 17.0138 63.5392 17.0392 63.0786C17.6399 53.1444 11.3062 42.7246 0.904419 36.5065C0.629035 36.3443 0.400715 36.1129 0.242081 35.8351C0.0834467 35.5574 0 35.2429 0 34.9229C0 34.6029 0.0834467 34.2885 0.242081 34.0107C0.400715 33.733 0.629035 33.5015 0.904419 33.3394C11.7066 27.2268 18.9046 14.5795 18.8203 1.85819C18.8146 1.37638 18.998 0.911607 19.3312 0.564045C19.6644 0.216484 20.1205 0.013985 20.6013 0.000172874C21.0785 -0.00632603 21.54 0.170627 21.8909 0.494649C22.2418 0.818671 22.4555 1.26511 22.4878 1.74208C22.8355 8.34025 23.1939 15.1496 25.4808 21.3149C27.9047 27.8919 32.468 32.7271 37.6741 34.2578C38.0697 34.372 38.4154 34.6163 38.6556 34.9512C38.8958 35.2862 39.0164 35.6923 38.9982 36.1044C38.9799 36.5164 38.8238 36.9102 38.5549 37.2226C38.2861 37.5349 37.9201 37.7475 37.516 37.8261C32.9843 38.7235 28.7267 42.2495 25.8391 47.4858C23.1412 52.3949 21.8554 58.0957 20.5697 63.5959C20.4766 63.9824 20.261 64.3281 19.955 64.5813C19.6491 64.8345 19.2694 64.9814 18.873 65ZM5.26747 34.9335C11.8895 39.4072 16.8678 45.9292 19.4421 53.5034C20.2522 50.7924 21.3363 48.1712 22.6775 45.6806C24.8602 41.5084 28.2166 38.0692 32.3309 35.7886C27.5502 32.6353 23.9478 27.9833 22.0873 22.5606C21.2349 20.2183 20.5895 17.8056 20.1587 15.3501C17.3507 23.2714 12.145 30.1174 5.26747 34.9335Z"/></symbol></svg>