<?xml version="1.0" encoding="utf-8"?><svg viewBox="0 0 414 109" xmlns="http://www.w3.org/2000/svg" xmlns:xlink="http://www.w3.org/1999/xlink"><style>:root>svg{display:none}:root>svg:target{display:block}</style><svg fill="none" viewBox="0 0 61 51" id="bubble" xmlns="http://www.w3.org/2000/svg">
    <path d="M13.352 51c-.977.003-1.95-.106-2.901-.325C3.705 49.05-1.11 41.819.222 35.148c1.333-6.67 8.315-11.659 15.289-11.106l3.271.252c.33.025.64.157.882.374.242.216.4.506.45.82a12.594 12.594 0 0 1 3.686 3.307c2.656 3.502 3.82 8.474 2.875 12.366a12.528 12.528 0 0 1-2.22 4.484 13.05 13.05 0 0 1-3.834 3.324 14.338 14.338 0 0 1-7.27 2.03Zm1.121-24.163c-5.278 0-10.372 3.892-11.367 8.848-1.054 5.265 2.707 10.984 8.037 12.236 1.353.288 2.751.316 4.116.083a10.788 10.788 0 0 0 3.835-1.44c2.346-1.332 4.047-3.506 4.731-6.045.33-1.745.288-3.536-.122-5.265a12.886 12.886 0 0 0-2.264-4.794 8.44 8.44 0 0 0-2.668-2.448 8.786 8.786 0 0 0-3.488-1.143 8.382 8.382 0 0 0-.81-.032ZM52.407 18a7.598 7.598 0 0 1-1.827-.217c-4.247-1.083-7.279-5.904-6.44-10.35.839-4.448 5.235-7.773 9.626-7.405l2.06.168a.915.915 0 0 1 .555.25.949.949 0 0 1 .284.546c.91.57 1.698 1.32 2.32 2.205 1.672 2.334 2.405 5.649 1.81 8.243a8.556 8.556 0 0 1-1.398 2.99 8.372 8.372 0 0 1-2.413 2.216A8.655 8.655 0 0 1 52.407 18Zm.706-16.109c-3.324 0-6.53 2.595-7.157 5.899-.664 3.51 1.704 7.323 5.06 8.157a6.513 6.513 0 0 0 2.591.056 6.563 6.563 0 0 0 2.415-.96 6.59 6.59 0 0 0 2.979-4.03 8.908 8.908 0 0 0-.077-3.51 8.82 8.82 0 0 0-1.425-3.196 5.443 5.443 0 0 0-1.68-1.632 5.323 5.323 0 0 0-2.196-.762 4.993 4.993 0 0 0-.51-.022Z" fill="#EDB24E"/>
</svg><svg fill="none" viewBox="0 0 7 7" id="circle-fill" xmlns="http://www.w3.org/2000/svg">
    <circle cx="3.5" cy="3.5" r="3.5" fill="#333"/>
</svg><svg fill="none" viewBox="0 0 98 109" id="conf" xmlns="http://www.w3.org/2000/svg">
    <path d="M2.89 108.318a2.385 2.385 0 0 1-1.999-2.246c-.4-10.657 4.774-21.875 13.879-30.014a41.304 41.304 0 0 1 11.346-7.33 34.963 34.963 0 0 1 5.631-25.277 34.284 34.284 0 0 1 17.12-12.362 29.63 29.63 0 0 1 7.948-18.366C65.347 3.94 79.385-.22 95.338 1.16a2.372 2.372 0 0 1-.434 4.725C80.4 4.57 67.745 8.262 60.23 16.02a24.488 24.488 0 0 0-6.477 13.792 34.012 34.012 0 0 1 19.144 1.667 15.4 15.4 0 0 1 6.692 4.701 10.68 10.68 0 0 1 1.676 8.863 12.871 12.871 0 0 1-6.352 8.495c-5.304 2.779-12.482 1.83-17.861-2.372a21.918 21.918 0 0 1-8.071-15.17 29.278 29.278 0 0 0-13.336 10.14 30.175 30.175 0 0 0-4.972 21.043 31.177 31.177 0 0 1 4.166-.811 25.428 25.428 0 0 1 21.403 7.04c3.08 3.245 4.572 6.94 4.164 10.457-.694 6.185-7.109 10.055-12.723 9.755-4.728-.242-9.581-2.901-13.632-7.486a33.045 33.045 0 0 1-6.87-12.677 37.087 37.087 0 0 0-9.24 6.134c-8.034 7.209-12.656 17.04-12.296 26.299a2.38 2.38 0 0 1-2.268 2.394 2.65 2.65 0 0 1-.488.033Zm28.683-36.49A28.57 28.57 0 0 0 37.553 83c1.858 2.087 5.658 5.653 10.332 5.886 3.36.177 7.381-2.063 7.771-5.555a8.763 8.763 0 0 0-2.883-6.644 20.923 20.923 0 0 0-17.414-5.62c-1.28.158-2.545.412-3.786.761Zm22-37.25a17.51 17.51 0 0 0 6.345 12.857c3.886 3.028 9.12 3.806 12.743 1.902a8.161 8.161 0 0 0 3.937-5.352 5.958 5.958 0 0 0-.849-4.97 10.544 10.544 0 0 0-4.691-3.157 29.358 29.358 0 0 0-17.485-1.28Z" fill="#333"/>
</svg><svg fill="none" viewBox="0 0 53 65" id="curv" xmlns="http://www.w3.org/2000/svg">
    <path d="M44.111 64.177c-2.6 0-5.18-1.11-7.5-2.22a26.501 26.501 0 0 1-6.57-4c-4.74-4.26-6-10.75-6.62-17.14-.1-1-.2-2.12-.28-3.22a29.73 29.73 0 0 0-20.16 8.24 1.74 1.74 0 1 1-2.43-2.49 33.28 33.28 0 0 1 22.38-9.23 58.32 58.32 0 0 1 1-14.87c1.73-7.95 5.66-14.66 11.09-18.88a1.742 1.742 0 1 1 2.14 2.75c-4.79 3.72-8.27 9.71-9.82 16.87a55.615 55.615 0 0 0-1 14.28 33.25 33.25 0 0 1 21.4 11c2.69 3.06 4.14 6 4.44 9 .4 4-1.7 7.93-5 9.32a8.11 8.11 0 0 1-3.07.59Zm-17.47-26.37c.08.91.16 1.8.25 2.68.56 5.68 1.61 11.42 5.48 14.89a23.583 23.583 0 0 0 5.74 3.44c2.71 1.3 5.54 2.48 7.81 1.52 2.27-.96 3.09-3.65 2.88-5.77-.21-2.12-1.4-4.53-3.59-7a29.73 29.73 0 0 0-18.57-9.76Z" fill="#000"/>
</svg><svg fill="none" viewBox="0 0 414 30" id="logo" xmlns="http://www.w3.org/2000/svg">
    <path d="M2.615 29.875c-.79 0-1.43-.235-1.92-.705C.232 28.672 0 28.008 0 27.178V2.905c0-.803.218-1.425.654-1.868.463-.442 1.09-.664 1.88-.664h10.052c3.078 0 5.476.789 7.192 2.366 1.716 1.549 2.574 3.734 2.574 6.556 0 2.821-.858 5.02-2.574 6.597-1.716 1.577-4.114 2.365-7.192 2.365H5.27v8.921c0 .83-.245 1.494-.735 1.992-.463.47-1.103.705-1.92.705Zm9.317-15.726c3.623 0 5.435-1.604 5.435-4.813 0-3.209-1.812-4.813-5.435-4.813h-6.66v9.626h6.66ZM62.274 26.431c.164.36.245.72.245 1.08 0 .636-.258 1.175-.776 1.618a2.481 2.481 0 0 1-1.716.663c-.436 0-.845-.11-1.226-.331-.382-.25-.681-.623-.9-1.12l-2.45-5.56H41.065l-2.452 5.56c-.218.497-.517.87-.899 1.12a2.478 2.478 0 0 1-1.266.332c-.627 0-1.2-.222-1.717-.664-.517-.443-.776-.982-.776-1.619 0-.36.082-.719.245-1.079L45.48 1.826c.246-.554.613-.968 1.104-1.245a3.177 3.177 0 0 1 1.634-.457c.572 0 1.104.153 1.594.457a2.53 2.53 0 0 1 1.144 1.245l11.32 24.605Zm-19.41-7.8h10.788L48.258 6.307l-5.394 12.324ZM112.12 1.784c.19-.553.49-.968.899-1.245a2.616 2.616 0 0 1 1.43-.415c.654 0 1.212.208 1.675.623.491.415.736.968.736 1.66 0 .249-.068.608-.204 1.078l-8.786 24.69a2.533 2.533 0 0 1-1.103 1.286 3.042 3.042 0 0 1-1.635.456 3.247 3.247 0 0 1-1.675-.456 2.337 2.337 0 0 1-1.063-1.287L95.611 8.631l-6.906 19.543a2.53 2.53 0 0 1-1.103 1.287 3.038 3.038 0 0 1-1.635.456 3.25 3.25 0 0 1-1.675-.456 2.382 2.382 0 0 1-1.022-1.287L74.485 3.485c-.137-.414-.205-.774-.205-1.078 0-.692.245-1.245.736-1.66a2.792 2.792 0 0 1 1.798-.623c.545 0 1.035.139 1.47.415.437.277.75.692.94 1.245l6.947 20.29L93.322 1.91c.191-.554.504-.982.94-1.287a2.31 2.31 0 0 1 1.43-.498c.518 0 .995.166 1.43.498.464.305.79.747.981 1.328l6.947 20.374 7.07-20.54ZM136.244 29.875c-.791 0-1.431-.248-1.921-.746-.463-.498-.695-1.148-.695-1.95V2.904c0-.803.218-1.425.654-1.868.463-.442 1.09-.664 1.88-.664h14.343c1.662 0 2.493.72 2.493 2.158 0 1.41-.831 2.116-2.493 2.116h-11.687v7.967h10.87c1.661 0 2.492.72 2.492 2.158 0 1.41-.831 2.116-2.492 2.116h-10.87v10.29c0 .803-.232 1.453-.695 1.95-.463.499-1.089.747-1.879.747ZM171.566 29.627c-.79 0-1.416-.222-1.88-.664-.435-.443-.653-1.065-.653-1.868V2.905c0-.803.218-1.425.653-1.868.464-.442 1.09-.664 1.88-.664h14.752c.79 0 1.403.18 1.839.54.436.36.653.871.653 1.535 0 .692-.217 1.231-.653 1.618-.436.36-1.049.54-1.839.54h-12.137v8.05h11.32c.79 0 1.403.18 1.838.539.436.36.654.885.654 1.577 0 .664-.218 1.175-.654 1.535-.435.36-1.048.54-1.838.54h-11.32v8.547h12.137c.79 0 1.403.194 1.839.581.436.36.653.885.653 1.577 0 .664-.217 1.175-.653 1.535-.436.36-1.049.54-1.839.54h-14.752ZM218.147 30c-2.779 0-5.217-.609-7.315-1.826-2.07-1.217-3.664-2.96-4.781-5.228-1.117-2.268-1.675-4.924-1.675-7.967 0-3.043.558-5.684 1.675-7.925 1.117-2.268 2.711-4.011 4.781-5.228C212.93.609 215.368 0 218.147 0c1.798 0 3.487.277 5.067.83 1.58.525 2.983 1.3 4.209 2.324.354.276.599.567.735.87.137.305.205.679.205 1.121 0 .609-.164 1.12-.491 1.536-.326.414-.722.622-1.185.622-.544 0-1.103-.194-1.675-.581-1.171-.885-2.261-1.494-3.269-1.826-1.008-.36-2.125-.54-3.351-.54-2.833 0-4.985.9-6.456 2.698-1.444 1.798-2.166 4.44-2.166 7.925 0 3.513.722 6.169 2.166 7.967 1.471 1.798 3.623 2.697 6.456 2.697 1.172 0 2.248-.18 3.228-.54 1.008-.359 2.139-.968 3.392-1.825.272-.166.545-.304.817-.415.273-.11.559-.166.858-.166.463 0 .859.208 1.185.623.327.414.491.926.491 1.535 0 .415-.068.788-.205 1.12-.136.304-.381.595-.735.871a13.425 13.425 0 0 1-4.209 2.366c-1.58.525-3.269.788-5.067.788ZM254.269 29.834c-.817 0-1.471-.235-1.962-.705-.463-.498-.694-1.148-.694-1.95V4.771h-7.437c-1.635 0-2.452-.733-2.452-2.2 0-1.466.817-2.199 2.452-2.199h20.145c1.635 0 2.452.734 2.452 2.2 0 1.466-.817 2.199-2.452 2.199h-7.437v22.406c0 .803-.245 1.453-.735 1.95-.463.47-1.09.706-1.88.706ZM284.765 29.875c-.79 0-1.431-.248-1.921-.746-.463-.498-.695-1.148-.695-1.95V2.821c0-.803.232-1.439.695-1.91.49-.497 1.131-.746 1.921-.746.817 0 1.457.249 1.92.747.491.47.736 1.106.736 1.909v24.356c0 .803-.245 1.453-.736 1.95-.463.499-1.103.747-1.92.747ZM318.732 30c-2.806 0-5.244-.609-7.314-1.826-2.043-1.217-3.624-2.96-4.74-5.228-1.117-2.268-1.676-4.924-1.676-7.967 0-3.043.545-5.684 1.635-7.925 1.117-2.268 2.71-4.011 4.781-5.228C313.488.609 315.926 0 318.732 0s5.231.609 7.274 1.826c2.07 1.217 3.65 2.96 4.74 5.228 1.117 2.24 1.676 4.882 1.676 7.925s-.559 5.699-1.676 7.967-2.71 4.011-4.781 5.228c-2.043 1.217-4.454 1.826-7.233 1.826Zm0-4.274c2.643 0 4.7-.927 6.171-2.78 1.498-1.853 2.247-4.509 2.247-7.967 0-3.458-.749-6.1-2.247-7.925-1.471-1.853-3.528-2.78-6.171-2.78-2.669 0-4.753.927-6.252 2.78-1.471 1.826-2.206 4.467-2.206 7.925s.735 6.114 2.206 7.967c1.499 1.853 3.583 2.78 6.252 2.78ZM371.826.166c.763 0 1.362.249 1.798.747.463.47.695 1.106.695 1.909v24.356c0 .803-.232 1.453-.695 1.95-.463.499-1.062.747-1.798.747-.872 0-1.539-.318-2.002-.954l-14.915-19.71v17.967c0 .803-.218 1.453-.654 1.95-.436.499-1.035.747-1.798.747-.763 0-1.362-.248-1.798-.746-.436-.498-.654-1.148-.654-1.95V2.821c0-.803.232-1.439.695-1.91.463-.497 1.076-.746 1.838-.746.845 0 1.499.318 1.962.954l14.874 19.627V2.822c0-.803.218-1.439.654-1.91.463-.497 1.062-.746 1.798-.746ZM402.763 30c-2.098 0-4.087-.277-5.967-.83-1.852-.58-3.364-1.355-4.535-2.324-.627-.47-.94-1.134-.94-1.991 0-.581.163-1.08.49-1.494.354-.443.763-.664 1.226-.664.49 0 1.049.194 1.675.581 1.172.858 2.398 1.48 3.678 1.867 1.281.387 2.697.581 4.25.581 1.989 0 3.514-.346 4.577-1.037 1.062-.72 1.593-1.757 1.593-3.112 0-1.051-.504-1.854-1.512-2.407-.98-.58-2.628-1.134-4.944-1.66-2.397-.525-4.345-1.134-5.844-1.825-1.498-.692-2.628-1.577-3.391-2.656-.763-1.079-1.144-2.448-1.144-4.108 0-1.715.476-3.25 1.43-4.606.953-1.355 2.275-2.406 3.964-3.153C399.085.387 401.005 0 403.13 0c3.896 0 7.07 1.051 9.521 3.154.355.304.6.608.736.912.163.277.245.637.245 1.08 0 .58-.177 1.092-.531 1.535-.327.414-.722.622-1.185.622a2.4 2.4 0 0 1-.776-.125 6.685 6.685 0 0 1-.899-.456c-1.117-.83-2.207-1.438-3.27-1.826-1.035-.415-2.315-.622-3.841-.622-1.852 0-3.323.387-4.413 1.162-1.062.747-1.594 1.798-1.594 3.153 0 1.134.477 2.006 1.431 2.614.953.609 2.574 1.176 4.862 1.702 2.425.553 4.386 1.175 5.885 1.867 1.525.664 2.683 1.521 3.473 2.572.817 1.052 1.226 2.365 1.226 3.942 0 1.715-.477 3.237-1.43 4.565-.926 1.3-2.248 2.323-3.964 3.07-1.689.72-3.637 1.079-5.843 1.079Z" fill="#EDB24E"/>
</svg><svg fill="none" viewBox="0 0 62 71" id="star" xmlns="http://www.w3.org/2000/svg">
    <path d="M25.845 35.871 1.77 35.244A1.81 1.81 0 0 1 0 33.382a1.766 1.766 0 0 1 1.864-1.778l24.076.628a1.822 1.822 0 0 1 1.82 1.82 1.819 1.819 0 0 1-1.82 1.82h-.095ZM60.063 36.09l-16.748-.49a1.813 1.813 0 0 1-1.758-1.873 1.861 1.861 0 0 1 1.873-1.767l16.749.491A1.822 1.822 0 0 1 62 34.271a1.818 1.818 0 0 1-1.821 1.82h-.116ZM34.774 25.33a1.833 1.833 0 0 1-1.822-1.81l-.167-21.69A1.83 1.83 0 0 1 34.595 0a1.812 1.812 0 0 1 1.822 1.81l.168 21.731a1.82 1.82 0 0 1-1.8 1.84l-.011-.052ZM34.91 71a1.822 1.822 0 0 1-1.821-1.788l-.356-25.1a1.819 1.819 0 0 1 1.795-1.846 1.822 1.822 0 0 1 1.848 1.794l.356 25.1a1.819 1.819 0 0 1-1.8 1.84h-.022Z" fill="#EDB24E"/>
</svg><svg fill="none" viewBox="0 0 45 75" id="star-big" xmlns="http://www.w3.org/2000/svg">
    <path d="M21.776 75h-.291a2.115 2.115 0 0 1-1.824-2.217c.693-11.462-6.615-23.485-18.617-30.66A2.118 2.118 0 0 1 0 40.296a2.123 2.123 0 0 1 1.044-1.828c12.464-7.052 20.769-21.646 20.672-36.324A2.122 2.122 0 0 1 23.77 0a2.15 2.15 0 0 1 2.176 2.01c.402 7.613.815 15.47 3.454 22.584 2.797 7.589 8.062 13.168 14.07 14.934a2.115 2.115 0 0 1 1.527 2.13 2.121 2.121 0 0 1-1.71 1.987c-5.23 1.036-10.142 5.104-13.474 11.146-3.113 5.665-4.596 12.243-6.08 18.589A2.12 2.12 0 0 1 21.776 75ZM6.078 40.308a42.272 42.272 0 0 1 16.355 21.427 48.066 48.066 0 0 1 3.733-9.027 27.763 27.763 0 0 1 11.139-11.413 29.91 29.91 0 0 1-11.82-15.264 49.186 49.186 0 0 1-2.225-8.32A46.585 46.585 0 0 1 6.078 40.309Z" fill="#EDB24E"/>
</svg><svg fill="none" viewBox="0 0 39 65" id="star-small" xmlns="http://www.w3.org/2000/svg">
    <path d="M18.873 65h-.253a1.833 1.833 0 0 1-1.58-1.921c.6-9.935-5.734-20.354-16.136-26.572a1.835 1.835 0 0 1-.662-2.496c.159-.278.387-.51.662-.672 10.803-6.112 18-18.76 17.916-31.48A1.839 1.839 0 0 1 20.601 0a1.863 1.863 0 0 1 1.887 1.742c.348 6.598.706 13.408 2.993 19.573 2.424 6.577 6.987 11.412 12.193 12.943a1.834 1.834 0 0 1 1.324 1.846 1.839 1.839 0 0 1-1.482 1.722c-4.532.898-8.79 4.423-11.677 9.66-2.698 4.909-3.984 10.61-5.27 16.11A1.837 1.837 0 0 1 18.874 65ZM5.267 34.934a36.636 36.636 0 0 1 14.175 18.57 41.651 41.651 0 0 1 3.235-7.823 24.061 24.061 0 0 1 9.654-9.892A25.922 25.922 0 0 1 22.087 22.56a42.622 42.622 0 0 1-1.928-7.21A40.373 40.373 0 0 1 5.267 34.933Z" fill="#EDB24E"/>
</svg></svg>