<svg width="61" height="51" viewBox="0 0 61 51" fill="none" xmlns="http://www.w3.org/2000/svg">
<path d="M13.3519 50.9999C12.375 51.003 11.4011 50.8939 10.451 50.6749C3.70494 49.05 -1.11009 41.8189 0.222265 35.1484C1.55462 28.478 8.53683 23.4893 15.5106 24.0418L18.7825 24.2937C19.1116 24.3192 19.4222 24.4511 19.664 24.6678C19.9058 24.8845 20.0646 25.1735 20.1148 25.488C21.5588 26.3436 22.8115 27.4678 23.7998 28.7948C26.4561 32.2966 27.6198 37.269 26.6754 41.1608C26.2483 42.7818 25.4937 44.3058 24.4548 45.6455C23.4159 46.9853 22.1131 48.1145 20.6208 48.9687C18.4385 50.2784 15.9229 50.9813 13.3519 50.9999ZM14.4734 26.8367C9.19459 26.8367 4.10131 30.7285 3.10626 35.6847C2.05218 40.9496 5.81315 46.6694 11.1426 47.9206C12.4956 48.2088 13.8942 48.2372 15.2586 48.0044C16.623 47.7716 17.9264 47.2821 19.0945 46.5638C21.44 45.232 23.1413 43.058 23.8252 40.5189C24.1545 38.774 24.1128 36.9828 23.7026 35.2539C23.2924 33.5249 22.5222 31.8942 21.4388 30.4604C20.7444 29.4675 19.8341 28.632 18.7711 28.0119C17.7082 27.3918 16.5179 27.0019 15.2829 26.8693C15.0131 26.8449 14.7854 26.8367 14.4734 26.8367Z" fill="#EDB24E"/>
<path d="M52.4068 18C51.7917 18.002 51.1785 17.9293 50.5803 17.7833C46.3327 16.7 43.3011 11.8793 44.1399 7.43229C44.9788 2.98531 49.375 -0.340454 53.7659 0.0278707L55.826 0.195782C56.0333 0.212825 56.2288 0.30071 56.3811 0.445203C56.5333 0.589697 56.6333 0.78235 56.6649 0.992015C57.5741 1.56242 58.3628 2.31185 58.9851 3.19655C60.6575 5.53108 61.3903 8.84601 60.7956 11.4405C60.5267 12.5212 60.0516 13.5372 59.3975 14.4303C58.7434 15.3235 57.9231 16.0764 56.9835 16.6458C55.6094 17.5189 54.0255 17.9875 52.4068 18ZM53.1129 1.89116C49.7892 1.89116 46.5823 4.4857 45.9558 7.78979C45.2921 11.2997 47.6601 15.113 51.0157 15.9471C51.8676 16.1392 52.7482 16.1581 53.6073 16.0029C54.4664 15.8477 55.287 15.5214 56.0224 15.0425C57.4992 14.1546 58.5705 12.7053 59.001 11.0126C59.2084 9.84933 59.1821 8.65521 58.9238 7.50258C58.6656 6.34995 58.1807 5.26278 57.4985 4.30694C57.0613 3.645 56.4881 3.08803 55.8189 2.67462C55.1496 2.26121 54.4002 2.00127 53.6226 1.91283C53.4527 1.89658 53.3093 1.89116 53.1129 1.89116Z" fill="#EDB24E"/>
</svg>
