<svg width="98" height="109" viewBox="0 0 98 109" fill="none" xmlns="http://www.w3.org/2000/svg">
<path d="M2.88936 108.318C2.34871 108.23 1.85467 107.959 1.49064 107.55C1.12662 107.141 0.914927 106.619 0.89103 106.072C0.491889 95.4146 5.66454 84.1973 14.7698 76.0575C18.1239 73.0085 21.9571 70.5324 26.1155 68.7285C24.6879 59.8923 26.7034 50.845 31.7471 43.4505C36.0107 37.6314 42.0013 33.3056 48.8661 31.0886C49.3056 24.23 52.1156 17.7374 56.815 12.7225C65.3473 3.94053 79.3849 -0.219013 95.3381 1.16084C95.9646 1.21846 96.5426 1.52265 96.9449 2.00644C97.3472 2.49022 97.5408 3.11396 97.4832 3.74051C97.4255 4.36705 97.1214 4.94503 96.6376 5.34732C96.1538 5.74961 95.53 5.94324 94.9035 5.88561C80.4002 4.57102 67.7458 8.26178 60.2303 16.0207C56.6592 19.8124 54.3902 24.6438 53.7527 29.8131C60.1618 28.5169 66.8087 29.0957 72.8974 31.4801C75.5107 32.4154 77.8226 34.0397 79.5887 36.181C80.4977 37.4465 81.1189 38.8957 81.4085 40.4267C81.698 41.9577 81.649 43.5334 81.265 45.0435C80.8707 46.8295 80.1004 48.511 79.0052 49.9759C77.91 51.4407 76.515 52.6553 74.9135 53.5387C69.6087 56.318 62.4309 55.3695 57.0518 51.1666C54.7541 49.3121 52.8548 47.0125 51.4679 44.4058C50.0809 41.799 49.235 38.939 48.9809 35.9972C43.643 38.006 39.0081 41.5301 35.6454 46.1367C31.4454 52.2962 29.6743 59.7925 30.6734 67.1804C32.0418 66.8156 33.4334 66.5444 34.8387 66.3688C38.7074 65.8188 42.6509 66.1679 46.3629 67.3889C50.0748 68.6099 53.4554 70.6701 56.2421 73.4094C59.3215 76.6542 60.814 80.3492 60.4063 83.866C59.712 90.0511 53.297 93.9212 47.683 93.6208C42.9551 93.3786 38.1019 90.7196 34.0508 86.1355C30.8558 82.4668 28.5103 78.1378 27.1817 73.4578C23.8113 75.0279 20.6961 77.0959 17.9408 79.5924C9.90666 86.8005 5.28505 96.6315 5.64472 105.891C5.64892 106.505 5.41521 107.098 4.99247 107.544C4.56972 107.991 3.99073 108.256 3.37668 108.285C3.21554 108.311 3.05246 108.322 2.88936 108.318ZM31.5735 71.8282C32.7051 75.9529 34.7483 79.7709 37.5525 83.0005C39.411 85.0869 43.2109 88.6529 47.885 88.8865C51.2457 89.0628 55.2662 86.8231 55.6563 83.331C55.677 82.0821 55.4305 80.8432 54.9332 79.6973C54.436 78.5514 53.6993 77.5251 52.7728 76.6872C50.4856 74.4924 47.7297 72.846 44.713 71.8723C41.6964 70.8986 38.4978 70.623 35.359 71.0664C34.0798 71.2247 32.8144 71.4793 31.5735 71.8282ZM53.5735 34.5786C53.6641 37.0479 54.2762 39.4699 55.3697 41.6857C56.4633 43.9015 58.0135 45.8607 59.9183 47.4346C63.8035 50.4632 69.0386 51.2406 72.6612 49.3371C73.6561 48.7709 74.5207 48.0016 75.1989 47.0795C75.8772 46.1574 76.3539 45.1029 76.5981 43.9846C76.8286 43.1444 76.872 42.2639 76.7253 41.4052C76.5787 40.5465 76.2456 39.7304 75.7493 39.0143C74.5021 37.5545 72.88 36.463 71.0579 35.8575C65.496 33.6604 59.3959 33.2142 53.5735 34.5786Z" fill="#333333"/>
</svg>
