<svg width="62" height="71" viewBox="0 0 62 71" fill="none" xmlns="http://www.w3.org/2000/svg">
<path d="M25.8453 35.8712L1.7698 35.2437C1.53107 35.2383 1.29576 35.1858 1.07743 35.0891C0.859101 34.9925 0.662057 34.8537 0.497637 34.6807C0.333218 34.5077 0.204621 34.3038 0.119349 34.081C0.0340774 33.8581 -0.00619234 33.6206 0.000770778 33.3822C-0.0010001 33.141 0.046589 32.9021 0.140688 32.6801C0.234787 32.458 0.373387 32.2576 0.547918 32.0911C0.72245 31.9245 0.929238 31.7954 1.15557 31.7117C1.3819 31.628 1.62297 31.5914 1.86397 31.6043L25.9395 32.2318C26.4225 32.2318 26.8859 32.4235 27.2274 32.7648C27.569 33.1061 27.7608 33.5689 27.7608 34.0515C27.7608 34.5341 27.569 34.9969 27.2274 35.3382C26.8859 35.6795 26.4225 35.8712 25.9395 35.8712H25.8453Z" fill="#EDB24E"/>
<path d="M60.0635 36.0907L43.3153 35.5992C43.0766 35.5924 42.8415 35.5386 42.6237 35.4407C42.4058 35.3428 42.2096 35.2028 42.0461 35.0288C41.8827 34.8548 41.7553 34.6502 41.6713 34.4268C41.5873 34.2035 41.5483 33.9657 41.5567 33.7272C41.581 33.2482 41.7894 32.797 42.1385 32.4677C42.4876 32.1384 42.9504 31.9565 43.4305 31.9598L60.1786 32.4513C60.6617 32.4513 61.125 32.643 61.4665 32.9843C61.8081 33.3255 62 33.7884 62 34.271C62 34.7537 61.8081 35.2165 61.4665 35.5577C61.125 35.899 60.6617 36.0907 60.1786 36.0907H60.0635Z" fill="#EDB24E"/>
<path d="M34.7737 25.3295C34.2933 25.3268 33.8331 25.1356 33.4925 24.7972C33.1518 24.4588 32.9578 24.0002 32.9523 23.5203L32.7849 1.8302C32.7849 1.34841 32.9749 0.886052 33.314 0.543425C33.653 0.200797 34.1136 0.00553639 34.5958 3.02438e-05C34.8345 -0.00134823 35.071 0.044408 35.292 0.134714C35.5129 0.22502 35.7137 0.358112 35.883 0.526254C36.0523 0.694396 36.1866 0.894265 36.2783 1.11446C36.3699 1.33465 36.4171 1.57078 36.4171 1.80926L36.5846 23.5412C36.5873 23.7802 36.543 24.0174 36.454 24.2392C36.365 24.461 36.2332 24.6632 36.066 24.8341C35.8988 25.005 35.6995 25.1414 35.4796 25.2353C35.2597 25.3293 35.0234 25.3791 34.7842 25.3818L34.7737 25.3295Z" fill="#EDB24E"/>
<path d="M34.9102 71C34.4326 71.0001 33.974 70.8126 33.6333 70.4781C33.2927 70.1436 33.0971 69.6889 33.0889 69.2117L32.7329 44.1122C32.726 43.6296 32.9113 43.164 33.248 42.8179C33.5846 42.4717 34.0451 42.2733 34.5282 42.2663C35.0112 42.2594 35.4772 42.4445 35.8237 42.7809C36.1702 43.1173 36.3688 43.5773 36.3757 44.0599L36.7316 69.1594C36.7343 69.3983 36.69 69.6355 36.601 69.8573C36.512 70.0791 36.3802 70.2813 36.213 70.4522C36.0458 70.6231 35.8465 70.7595 35.6266 70.8534C35.4067 70.9474 35.1704 70.9973 34.9312 71H34.9102Z" fill="#EDB24E"/>
</svg>
